<?xml version="1.0" encoding="utf-8"?>
<!DOCTYPE svg PUBLIC "-//W3C//DTD SVG 1.1//EN" "http://www.w3.org/Graphics/SVG/1.1/DTD/svg11.dtd">
<svg version="1.1" id="Layer_1" xmlns="http://www.w3.org/2000/svg" xmlns:xlink="http://www.w3.org/1999/xlink" x="0px" y="0px"
	 width="144px" height="30px" viewBox="0.5 0 144 30" enable-background="new 0.5 0 144 30" xml:space="preserve">
<path fill="#ED3400" d="M25.879,0.286h-2.043H2.359v1.646h20.181l-20.745,26.4l-0.547,0.691L0.5,29.979h2.043H25.11v-1.646H3.833
	l20.745-26.4L25.879,0.286z"/>
<path fill="#ED3400" d="M41.274,0.055c-2.925,0-5.784,0.878-8.215,2.523c-2.432,1.645-4.328,3.983-5.447,6.719
	s-1.412,5.747-0.841,8.651s1.979,5.572,4.047,7.666c2.068,2.095,4.703,3.521,7.572,4.098c2.868,0.578,5.842,0.281,8.544-0.853
	c2.702-1.133,5.011-3.052,6.636-5.514c1.625-2.463,2.492-5.357,2.492-8.318c0-3.971-1.558-7.779-4.331-10.587
	C48.957,1.632,45.196,0.055,41.274,0.055z M41.274,28.331c-2.599,0-5.139-0.78-7.3-2.242c-2.161-1.462-3.845-3.54-4.84-5.97
	c-0.994-2.432-1.254-5.106-0.748-7.688c0.507-2.581,1.758-4.951,3.596-6.812c1.837-1.86,4.179-3.127,6.728-3.641
	c2.549-0.514,5.191-0.25,7.592,0.757s4.453,2.712,5.897,4.9c1.444,2.188,2.214,4.76,2.214,7.392
	c-0.001,3.527-1.386,6.911-3.85,9.406C48.1,26.928,44.758,28.33,41.274,28.331z"/>
<path fill="#ED3400" d="M99.02,0.033L97.188,0.06h-0.07L81.576,29.939h1.887l14.63-28.123l14.538,28.123h1.881L99.058,0.033H99.02z"
	/>
<path fill="#ED3400" d="M132.867,14.758l11.156-14.544h-2.125l-10.1,13.167L121.711,0.214h-2.119l11.156,14.544l-11.645,15.181
	h2.119l10.588-13.804l10.58,13.804h2.109L132.867,14.758z"/>
<path fill="#ED3400" d="M75.978,15.593v5.226c0.007,1.636-0.519,3.229-1.495,4.532c-0.976,1.305-2.348,2.247-3.905,2.685
	c-1.558,0.437-3.213,0.343-4.713-0.268c-1.5-0.609-2.759-1.701-3.585-3.107h-1.832c0.661,1.455,1.69,2.707,2.983,3.631
	s2.803,1.485,4.379,1.629c1.576,0.143,3.161-0.139,4.595-0.814s2.667-1.723,3.574-3.035c0.979-1.396,1.543-3.048,1.626-4.759V0
	h-1.626V15.593z"/>
</svg>
