<?xml version="1.0" encoding="utf-8"?>
<!DOCTYPE svg PUBLIC "-//W3C//DTD SVG 1.1//EN" "http://www.w3.org/Graphics/SVG/1.1/DTD/svg11.dtd">
<svg xmlns="http://www.w3.org/2000/svg" xmlns:xlink="http://www.w3.org/1999/xlink" width="24" height="24" fill="#0ba198"><path fill="#0BA198" d="M16.122 3.24a.792.792 0 00-.566-.24H8.445a.792.792 0 00-.566.24L3.235 7.987A.828.828 0 003 8.565v6.943c0 .219.086.429.239.582l4.64 4.675a.792.792 0 00.562.235h7.114a.791.791 0 00.567-.24l4.644-4.747a.828.828 0 00.234-.578v-6.87a.828.828 0 00-.234-.578L16.121 3.24z"></path><path fill="#fff" d="M17.192 12.713a.283.283 0 01.256.165l.41.883a.124.124 0 01-.11.178h-1.78v1.993a.164.164 0 01-.162.166h-1.648a.164.164 0 01-.162-.166v-2.998h-3.991v2.998a.164.164 0 01-.162.166H8.195a.164.164 0 01-.163-.166v-1.993h-1.78a.124.124 0 01-.11-.178l.41-.883a.283.283 0 01.257-.165h1.223v-1.426H6.81a.283.283 0 01-.256-.166l-.41-.882a.124.124 0 01.11-.178h1.78V8.068c0-.092.072-.166.162-.166h1.648c.09 0 .162.074.162.166v2.998h3.991V8.068c0-.092.073-.166.162-.166h1.648c.09 0 .162.074.162.166v1.993h1.78c.09 0 .148.095.11.178l-.41.882a.283.283 0 01-.256.166h-1.224v1.426h1.224z"></path></svg>