<?xml version="1.0" encoding="utf-8"?>
<!-- Generator: Adobe Illustrator 16.0.0, SVG Export Plug-In . SVG Version: 6.00 Build 0)  -->
<!DOCTYPE svg PUBLIC "-//W3C//DTD SVG 1.1//EN" "http://www.w3.org/Graphics/SVG/1.1/DTD/svg11.dtd">
<svg fill="#000000" viewBox="0 0 24 24" aria-hidden="true" xmlns="http://www.w3.org/2000/svg" xmlns:xlink="http://www.w3.org/1999/xlink"><g clip-path="url(#a)"><path fill="#101010" d="M2.822 19h18.667a1.17 1.17 0 0 0 1.166-1.167 1.17 1.17 0 0 0-1.166-1.166H2.822a1.17 1.17 0 0 0-1.167 1.166A1.17 1.17 0 0 0 2.822 19Zm0-5.833h18.667A1.17 1.17 0 0 0 22.655 12a1.17 1.17 0 0 0-1.166-1.167H2.822A1.17 1.17 0 0 0 1.655 12a1.17 1.17 0 0 0 1.167 1.167Zm-1.167-7a1.17 1.17 0 0 0 1.167 1.166h18.667a1.17 1.17 0 0 0 1.166-1.166A1.17 1.17 0 0 0 21.49 5H2.822a1.17 1.17 0 0 0-1.167 1.167Z"></path></g><defs><clipPath id="a"><path fill="#fff" d="M0 0h21v21H0z" transform="translate(1.655 1)"></path></clipPath></defs></svg>