<?xml version="1.0" encoding="utf-8"?>
<!DOCTYPE svg PUBLIC "-//W3C//DTD SVG 1.1//EN" "http://www.w3.org/Graphics/SVG/1.1/DTD/svg11.dtd">
<svg viewBox="0 0 10 10" fill="#000000" aria-hidden="true" xmlns="http://www.w3.org/2000/svg" xmlns:xlink="http://www.w3.org/1999/xlink"><path d="M0.551423 9.44872C0.0827938 8.9801 0.0827938 8.2203 0.551423 7.75167L3.30293 5.00016L0.551534 2.24876C0.0829045 1.78013 0.0829057 1.02033 0.551534 0.551702C1.02016 0.083073 1.77996 0.0830736 2.24859 0.551702L4.99999 3.3031L7.75142 0.551667C8.22005 0.0830376 8.97985 0.0830382 9.44848 0.551667C9.91711 1.0203 9.91711 1.78009 9.44848 2.24872L6.69704 5.00016L9.44859 7.75172C9.91722 8.22035 9.91722 8.98015 9.44859 9.44877C8.97996 9.9174 8.22016 9.9174 7.75153 9.44877L4.99999 6.69722L2.24848 9.44872C1.77985 9.91735 1.02005 9.91735 0.551423 9.44872Z"></path></svg>